# xmcd
#
# Track frame offsets:
#	150
#	6795
#	23547
#	35827
#	54085
#	73682
#	91732
#	101945
#	120867
#	129205
#	149725
#	169812
#	189695
#	211447
#	230917
#	244630
#	264240
#	283340
#	298745
#
# Disc length: 4264 seconds
#
# Revision: 2
# Processed by: cddbd v1.5.2PL0 Copyright (c) Steve Scherf et al.
# Submitted via: EasyCDDAExtractor 12.0.0.1
#
DISCID=1810a613
DTITLE=Method Man and Redman - Blackout
DYEAR=1999
DGENRE=Hip-Hop
TTITLE0=A Special Joint (Intro)
TTITLE1=Blackout
TTITLE2=Mi Casa
TTITLE3=Y.O.U.
TTITLE4=4 Seasons (Featuring Ja Rule and LL Cool J)
TTITLE5=Cereal Killer
TTITLE6=Da Rockwilder
TTITLE7=Tear It Off
TTITLE8=Where We At (Skit)
TTITLE9=1, 2, 1, 2
TTITLE10=Maaad Crew
TTITLE11=Run 4 Cover (Featuring Ghostface and Street)
TTITLE12=The (Unknown)
TTITLE13=Dat's Dat Shit (Featuring Mally G)
TTITLE14=Cheka
TTITLE15=Fire Ina Hole
TTITLE16=Well All Rite Cha
TTITLE17=Big Dogs
TTITLE18=How High (Remix)
EXTD=Blaze1310
EXTT0=
EXTT1=
EXTT2=
EXTT3=
EXTT4=
EXTT5=
EXTT6=
EXTT7=
EXTT8=
EXTT9=
EXTT10=
EXTT11=
EXTT12=
EXTT13=
EXTT14=
EXTT15=
EXTT16=
EXTT17=
EXTT18=
PLAYORDER=
